<svg xmlns="http://www.w3.org/2000/svg" viewBox="0 0 300 250" aria-label="CharacterVault logo"><defs><filter id="c" x="-50%" y="-50%" width="200%" height="200%"><feDropShadow dx="0" dy="3" stdDeviation="3" flood-color="#000" flood-opacity=".2"/></filter><filter id="b" x="-50%" y="-50%" width="200%" height="200%"><feGaussianBlur stdDeviation="1" result="b"/><feMerge><feMergeNode in="b"/><feMergeNode in="SourceGraphic"/></feMerge></filter><linearGradient id="a" x1="0%" y1="0%" x2="100%" y2="100%"><stop offset="0%" stop-color="#7ad8e2"/><stop offset="100%" stop-color="#1abc9c"/></linearGradient></defs><path d="M75 5 10 40c0 50 25 75 65 95 40-20 65-45 65-95z" fill="url(#a)" stroke="#138f79" stroke-width="2" transform="translate(75 30)" filter="url(#b)"/><path d="M150 65c-10 0-17 7-17 17s7 18 17 18 17-8 17-18-7-17-17-17m-25 60c0-10 10-17 25-17s25 7 25 17v5h-50Z" fill="#29484b"/><text x="150" y="215" font-family="'Segoe UI', Roboto, Helvetica, Arial, sans-serif" font-size="28" font-weight="700" text-anchor="middle" fill="url(#a)" letter-spacing=".6" filter="url(#c)" style="paint-order:stroke;-webkit-font-smoothing:antialiased;text-rendering:optimizeLegibility">
    CharacterVault
  </text></svg>