<?xml version="1.0" encoding="UTF-8" standalone="no"?><!DOCTYPE svg PUBLIC "-//W3C//DTD SVG 1.1//EN" "http://www.w3.org/Graphics/SVG/1.1/DTD/svg11.dtd"><svg xmlns="http://www.w3.org/2000/svg" xmlns:xlink="http://www.w3.org/1999/xlink" version="1.1" width="62" height="78" viewBox="1 9 62 78">
<defs>
</defs>
<g transform="matrix(0.9609 -0.101 0.101 0.9609 32.2341 50.3983)">
<rect transform="translate(0,0)" style="fill: rgb(224,231,255)" x="-28" y="-36" rx="6" ry="6" width="56" height="72"/>
</g>
<g transform="matrix(0.9648 -0.0506 0.0506 0.9648 30.3815 48.1355)">
<rect transform="translate(0,0)" style="fill: rgb(199,210,254)" x="-28" y="-36" rx="6" ry="6" width="56" height="72"/>
</g>
<g transform="matrix(0.9661 0 0 0.9661 29.0108 44.6439)">
<linearGradient id="SVGID_108" gradientUnits="objectBoundingBox" gradientTransform="matrix(1 0 0 1 0 0)" x1="0" y1="0" x2="0" y2="1">
<stop offset="0%" style="stop-color:rgb(255,255,255);stop-opacity: 1"/>
<stop offset="100%" style="stop-color:rgb(243,244,246);stop-opacity: 1"/>
</linearGradient>
<rect transform="translate(0,0)" style="stroke: rgb(99,102,241); stroke-width: 1.5; fill: url(#SVGID_108)" x="-28" y="-36" rx="6" ry="6" width="56" height="72"/>
</g>
<g transform="matrix(1.3994 0 0 1.3994 18.5443 28.3806)">
<linearGradient id="SVGID_109" gradientUnits="objectBoundingBox" gradientTransform="matrix(1 0 0 1 0 0)" x1="0" y1="0" x2="1" y2="1">
<stop offset="0%" style="stop-color:rgb(99,102,241);stop-opacity: 1"/>
<stop offset="100%" style="stop-color:rgb(139,92,246);stop-opacity: 1"/>
</linearGradient>
<circle transform="translate(0,0)" style="fill: url(#SVGID_109)" cx="0" cy="0" r="10"/>
</g>
<path transform="translate(0,0)" style="fill: rgb(255,255,255)" stroke-linecap="round" d="M18.5443 19.6345C20.6434 19.6345 22.7425 21.7336 22.7425 23.8327 22.7425 25.9318 20.6434 28.0309 18.5443 28.0309 16.4452 28.0309 14.3461 25.9318 14.3461 23.8327 14.3461 21.7336 16.4452 19.6345 18.5443 19.6345Z"/>
<path transform="translate(0,0)" style="fill: rgb(255,255,255)" stroke-linecap="round" d="M10.1479 36.4271C10.1479 32.2289 13.6464 29.4301 18.5443 29.4301 23.4422 29.4301 26.9407 32.2289 26.9407 36.4271"/>
<rect transform="translate(0,0)" style="fill: rgb(99,102,241); opacity: 0.6" x="34.4393" y="27.2541" rx="1.5" ry="1.5" width="19.1184" height="3.5847"/>
<rect transform="translate(0,0)" style="fill: rgb(165,180,252); opacity: 0.8" x="34.1977" y="34.3027" rx="1.5" ry="1.5" width="14.3388" height="3.5847"/>
<rect transform="translate(0,0)" style="fill: rgb(203,213,225)" x="6.2875" y="49.4782" rx="1.5" ry="1.5" width="46.816" height="3.5112"/>
<rect transform="translate(0,0)" style="fill: rgb(203,213,225)" x="6.2876" y="58.8409" rx="1.5" ry="1.5" width="35.112" height="3.5112"/>
<rect transform="translate(0,0)" style="fill: rgb(203,213,225)" x="6.2875" y="68.2036" rx="1.5" ry="1.5" width="39.7936" height="3.5112"/>
<path transform="translate(0,0)" style="fill: rgb(244,114,182)" stroke-linecap="round" d="M44.3526 12.6399L46.163 17.4675 50.9906 18.6744 46.163 19.8813 44.3526 24.7089 42.5423 19.8813 37.7147 18.6744 42.5423 17.4675 44.3526 12.6399Z"/>
</svg>